# xmcd
#
# Track frame offsets: 
#        150
#        21259
#        41989
#        61116
#        80956
#        101840
#        119728
#        140549
#        152809
#        170130
#        186863
#        203638
#        218963
#        233977
#        250895
#        271198
#        290965
#        306812
#        320617
#        335027
#
# Disc length: 4734 seconds
#
# Revision: 0
# Processed by: cddbd v1.5.2PL0 Copyright (c) Steve Scherf et al.
# Submitted via: ExactAudioCopy v0.99pb4
#
DISCID=45127c14
DTITLE=Various Artist - I Love Retro - CD 2
DYEAR=2012
DGENRE=Acid
TTITLE0=At The Villa People - Open Your Eyes
TTITLE1=Junk Project - Control 99
TTITLE2=Systematic Parts - Violin De La Nuit
TTITLE3=The Age Of Love - The Age Of Love
TTITLE4=The Mackenzie Feat. Jessy - Without You (Arpegia)
TTITLE5=Cherrymoon Trax - The House Of House
TTITLE6=Marco Bailey - Sniff (Coke Man)
TTITLE7=Public Energy - Three O' Three
TTITLE8=Emmanuel Top - Acid Phase
TTITLE9=Commander Tom - Are Am Eye?
TTITLE10=D.H.S. - House Of God
TTITLE11=Scorpio Rising - Nagasaki
TTITLE12=Johnny Vicious Feat. Lula - Ecstasy (Take Your Shirts Off)
TTITLE13=Phi-Phi and Greg D. - Jesus Trip (Christianity Mix)
TTITLE14=DJ Rolando A.K.A The Aztec Mystic - Jaguar
TTITLE15=Zolex - Time Modulator
TTITLE16=Drax Ltd. II - Amphetamine
TTITLE17=Krid Snero - White Line
TTITLE18=Thunderball - Bonzaï Channel One
TTITLE19=Jones and Stephenson - The First Rebirth
EXTD=
EXTT0=
EXTT1=
EXTT2=
EXTT3=
EXTT4=
EXTT5=
EXTT6=
EXTT7=
EXTT8=
EXTT9=
EXTT10=
EXTT11=
EXTT12=
EXTT13=
EXTT14=
EXTT15=
EXTT16=
EXTT17=
EXTT18=
EXTT19=
PLAYORDER=
